<svg width="26" height="22" viewBox="0 0 26 22" fill="none" xmlns="http://www.w3.org/2000/svg">
<path d="M1.33331 5.16669L10.8591 11.8347C11.6304 12.3747 12.0161 12.6446 12.4356 12.7492C12.8062 12.8416 13.1938 12.8416 13.5643 12.7492C13.9839 12.6446 14.3695 12.3747 15.1409 11.8347L24.6666 5.16669M6.93331 20.3334H19.0666C21.0268 20.3334 22.0069 20.3334 22.7556 19.9519C23.4142 19.6163 23.9496 19.0809 24.2852 18.4223C24.6666 17.6736 24.6666 16.6935 24.6666 14.7334V7.26669C24.6666 5.3065 24.6666 4.32641 24.2852 3.57772C23.9496 2.91915 23.4142 2.38372 22.7556 2.04816C22.0069 1.66669 21.0268 1.66669 19.0666 1.66669H6.93331C4.97313 1.66669 3.99304 1.66669 3.24435 2.04816C2.58578 2.38372 2.05035 2.91915 1.71479 3.57772C1.33331 4.32641 1.33331 5.3065 1.33331 7.26669V14.7334C1.33331 16.6935 1.33331 17.6736 1.71479 18.4223C2.05035 19.0809 2.58578 19.6163 3.24435 19.9519C3.99304 20.3334 4.97313 20.3334 6.93331 20.3334Z" stroke="#8600FF" stroke-width="2" stroke-linecap="round" stroke-linejoin="round"/>
</svg>
